G04 Layer_Color=8421504*
%FSLAX44Y44*%
%MOMM*%
%TF.FileFunction,Paste,Top*%
%TF.Part,Single*%
G01*
G75*
%TA.AperFunction,SMDPad*%
%ADD10R,1.5000X1.5000*%
%TA.AperFunction,SMDPad*%
%ADD11R,0.3800X1.5000*%
%TA.AperFunction,SMDPad*%
%ADD12R,0.6000X1.9500*%
%TA.AperFunction,SMDPad*%
%ADD13R,0.8000X1.2000*%
%TA.AperFunction,SMDPad*%
%ADD14R,1.5500X0.6000*%
%TA.AperFunction,SMDPad*%
%ADD15R,0.6000X1.5500*%
D10*
X961736Y690513D02*
D03*
Y655513D02*
D03*
Y738063D02*
D03*
Y773063D02*
D03*
D11*
X126596Y677183D02*
D03*
X133096D02*
D03*
X139596D02*
D03*
X146096D02*
D03*
X152596D02*
D03*
X159096D02*
D03*
X165596D02*
D03*
X172096D02*
D03*
X178596D02*
D03*
X185096D02*
D03*
Y732183D02*
D03*
X178596D02*
D03*
X172096D02*
D03*
X165596D02*
D03*
X159096D02*
D03*
X152596D02*
D03*
X146096D02*
D03*
X139596D02*
D03*
X133096D02*
D03*
X126596D02*
D03*
D12*
X745836Y754318D02*
D03*
X758536D02*
D03*
X771236D02*
D03*
X783936D02*
D03*
X796636D02*
D03*
X809336D02*
D03*
X822036D02*
D03*
X834736D02*
D03*
X847436D02*
D03*
X860136D02*
D03*
X745836Y659318D02*
D03*
X758536D02*
D03*
X771236D02*
D03*
X783936D02*
D03*
X796636D02*
D03*
X809336D02*
D03*
X822036D02*
D03*
X834736D02*
D03*
X847436D02*
D03*
X860136D02*
D03*
D13*
X242536Y698543D02*
D03*
X255236D02*
D03*
X242536Y761543D02*
D03*
X255236D02*
D03*
D14*
X671516Y162748D02*
D03*
Y150048D02*
D03*
Y137348D02*
D03*
Y124648D02*
D03*
X725516D02*
D03*
Y137348D02*
D03*
Y150048D02*
D03*
Y162748D02*
D03*
X854396Y238948D02*
D03*
Y226248D02*
D03*
Y213548D02*
D03*
Y200848D02*
D03*
X908396D02*
D03*
Y213548D02*
D03*
Y226248D02*
D03*
Y238948D02*
D03*
X649926Y256728D02*
D03*
Y244028D02*
D03*
Y231328D02*
D03*
Y218628D02*
D03*
X703926D02*
D03*
Y231328D02*
D03*
Y244028D02*
D03*
Y256728D02*
D03*
X199076Y379918D02*
D03*
Y367218D02*
D03*
Y354518D02*
D03*
Y341818D02*
D03*
X253076D02*
D03*
Y354518D02*
D03*
Y367218D02*
D03*
Y379918D02*
D03*
D15*
X42256Y655843D02*
D03*
X54956D02*
D03*
X67656D02*
D03*
X80356D02*
D03*
Y709843D02*
D03*
X67656D02*
D03*
X54956D02*
D03*
X42256D02*
D03*
%TF.MD5,EAE061C7D0E302BDA4E495E2D7FDD0C1*%
M02*
