G04 Layer_Color=8388736*
%FSLAX44Y44*%
%MOMM*%
%TF.FileFunction,Soldermask,Top*%
%TF.Part,Single*%
G01*
G75*
%TA.AperFunction,SMDPad*%
%ADD45R,1.7032X1.7032*%
%TA.AperFunction,SMDPad*%
%ADD46R,0.5832X1.7032*%
%TA.AperFunction,SMDPad*%
%ADD47R,0.8032X2.1532*%
%TA.AperFunction,SMDPad*%
%ADD48R,1.0032X1.4032*%
%TA.AperFunction,SMDPad*%
%ADD49R,1.7532X0.8032*%
%TA.AperFunction,SMDPad*%
%ADD50R,0.8032X1.7532*%
%TA.AperFunction,ViaPad*%
%ADD51C,1.4032*%
%TA.AperFunction,ViaPad*%
%ADD52C,1.7032*%
%TA.AperFunction,ViaPad*%
%ADD53C,1.6032*%
%TA.AperFunction,ViaPad*%
%ADD54O,2.2032X1.2032*%
%TA.AperFunction,ViaPad*%
%ADD55O,2.2032X1.2032*%
%TA.AperFunction,ViaPad*%
%ADD56R,1.7032X1.7032*%
%TA.AperFunction,ViaPad*%
%ADD57R,1.7032X1.7032*%
%TA.AperFunction,ViaPad*%
%ADD58C,2.2032*%
%TA.AperFunction,ViaPad*%
%ADD59C,1.7272*%
%TA.AperFunction,ViaPad*%
%ADD60C,1.2032*%
%TA.AperFunction,ViaPad*%
%ADD61O,1.2032X2.2032*%
%TA.AperFunction,ViaPad*%
%ADD62O,1.2032X2.2032*%
%TA.AperFunction,ViaPad*%
%ADD63C,1.5032*%
%TA.AperFunction,ViaPad*%
%ADD64C,2.1032*%
%TA.AperFunction,ViaPad*%
%ADD65R,1.4032X1.4032*%
%TA.AperFunction,ViaPad*%
%ADD66R,1.0032X1.4032*%
%TA.AperFunction,ViaPad*%
%ADD67C,0.2032*%
%TA.AperFunction,ViaPad*%
%ADD68C,3.2032*%
%TA.AperFunction,ViaPad*%
%ADD69C,1.4732*%
%TA.AperFunction,ViaPad*%
%ADD70C,3.0032*%
D45*
X961736Y690513D02*
D03*
Y655513D02*
D03*
Y738063D02*
D03*
Y773063D02*
D03*
D46*
X126596Y677183D02*
D03*
X133096D02*
D03*
X139596D02*
D03*
X146096D02*
D03*
X152596D02*
D03*
X159096D02*
D03*
X165596D02*
D03*
X172096D02*
D03*
X178596D02*
D03*
X185096D02*
D03*
Y732183D02*
D03*
X178596D02*
D03*
X172096D02*
D03*
X165596D02*
D03*
X159096D02*
D03*
X152596D02*
D03*
X146096D02*
D03*
X139596D02*
D03*
X133096D02*
D03*
X126596D02*
D03*
D47*
X745836Y754318D02*
D03*
X758536D02*
D03*
X771236D02*
D03*
X783936D02*
D03*
X796636D02*
D03*
X809336D02*
D03*
X822036D02*
D03*
X834736D02*
D03*
X847436D02*
D03*
X860136D02*
D03*
X745836Y659318D02*
D03*
X758536D02*
D03*
X771236D02*
D03*
X783936D02*
D03*
X796636D02*
D03*
X809336D02*
D03*
X822036D02*
D03*
X834736D02*
D03*
X847436D02*
D03*
X860136D02*
D03*
D48*
X242536Y698543D02*
D03*
X255236D02*
D03*
X242536Y761543D02*
D03*
X255236D02*
D03*
D49*
X671516Y162748D02*
D03*
Y150048D02*
D03*
Y137348D02*
D03*
Y124648D02*
D03*
X725516D02*
D03*
Y137348D02*
D03*
Y150048D02*
D03*
Y162748D02*
D03*
X854396Y238948D02*
D03*
Y226248D02*
D03*
Y213548D02*
D03*
Y200848D02*
D03*
X908396D02*
D03*
Y213548D02*
D03*
Y226248D02*
D03*
Y238948D02*
D03*
X649926Y256728D02*
D03*
Y244028D02*
D03*
Y231328D02*
D03*
Y218628D02*
D03*
X703926D02*
D03*
Y231328D02*
D03*
Y244028D02*
D03*
Y256728D02*
D03*
X199076Y379918D02*
D03*
Y367218D02*
D03*
Y354518D02*
D03*
Y341818D02*
D03*
X253076D02*
D03*
Y354518D02*
D03*
Y367218D02*
D03*
Y379918D02*
D03*
D50*
X42256Y655843D02*
D03*
X54956D02*
D03*
X67656D02*
D03*
X80356D02*
D03*
Y709843D02*
D03*
X67656D02*
D03*
X54956D02*
D03*
X42256D02*
D03*
D51*
X435610Y489820D02*
D03*
X461010D02*
D03*
X701386Y404048D02*
D03*
Y353248D02*
D03*
X113376Y627293D02*
D03*
X138776D02*
D03*
X104486Y727623D02*
D03*
Y753023D02*
D03*
Y673013D02*
D03*
Y698413D02*
D03*
X777586Y628563D02*
D03*
X802986D02*
D03*
Y558713D02*
D03*
X777586D02*
D03*
X748376Y533313D02*
D03*
Y507913D02*
D03*
X777586Y599353D02*
D03*
X802986D02*
D03*
X19396Y722543D02*
D03*
Y697143D02*
D03*
X885536Y754293D02*
D03*
Y728893D02*
D03*
X19396Y666663D02*
D03*
Y641263D02*
D03*
X870296Y80198D02*
D03*
Y29398D02*
D03*
X660746D02*
D03*
Y54798D02*
D03*
X519776Y377378D02*
D03*
X570576D02*
D03*
X954116Y280858D02*
D03*
Y331658D02*
D03*
X731866Y211008D02*
D03*
Y185608D02*
D03*
X829656Y277048D02*
D03*
X778856D02*
D03*
X700116Y194498D02*
D03*
X674716D02*
D03*
X710276Y103058D02*
D03*
X684876D02*
D03*
X856326Y166558D02*
D03*
Y141158D02*
D03*
X866486Y289748D02*
D03*
Y264348D02*
D03*
X742026Y371028D02*
D03*
Y345628D02*
D03*
X692496Y280858D02*
D03*
X667096D02*
D03*
X865216Y345628D02*
D03*
Y371028D02*
D03*
X522316Y141158D02*
D03*
X496916D02*
D03*
X903316Y278318D02*
D03*
Y329118D02*
D03*
X884266Y648883D02*
D03*
Y674283D02*
D03*
X885536Y810173D02*
D03*
Y784773D02*
D03*
X508346Y779693D02*
D03*
Y805093D02*
D03*
X446116Y834303D02*
D03*
Y808903D02*
D03*
X712816Y801283D02*
D03*
X662016D02*
D03*
X949036Y378648D02*
D03*
X898236D02*
D03*
X495646Y324038D02*
D03*
Y298638D02*
D03*
X254346Y170368D02*
D03*
Y119568D02*
D03*
X281016Y415478D02*
D03*
Y390078D02*
D03*
X452466Y124648D02*
D03*
X427066Y213548D02*
D03*
X481676Y694878D02*
D03*
X456276D02*
D03*
X376266Y719008D02*
D03*
Y693608D02*
D03*
X183226Y311338D02*
D03*
X234026D02*
D03*
X244186Y275778D02*
D03*
Y250378D02*
D03*
D52*
X504536Y13883D02*
D03*
X529936D02*
D03*
X555336D02*
D03*
D03*
X780126Y473623D02*
D03*
Y499023D02*
D03*
Y524423D02*
D03*
D03*
X682336Y668208D02*
D03*
X656936D02*
D03*
X631536D02*
D03*
X606136D02*
D03*
X580736D02*
D03*
X555336D02*
D03*
X529936D02*
D03*
X504536D02*
D03*
X479136D02*
D03*
X453736D02*
D03*
X428336D02*
D03*
X402936D02*
D03*
X377536D02*
D03*
X352136D02*
D03*
X326736D02*
D03*
X301336D02*
D03*
X275936D02*
D03*
X250536D02*
D03*
X225136D02*
D03*
X707736Y515808D02*
D03*
X682336D02*
D03*
X656936D02*
D03*
X631536D02*
D03*
X606136D02*
D03*
X580736D02*
D03*
X555336D02*
D03*
X529936D02*
D03*
X504536D02*
D03*
X479136D02*
D03*
X453736D02*
D03*
X428336D02*
D03*
X402936D02*
D03*
X377536D02*
D03*
X352136D02*
D03*
X326736D02*
D03*
X301336D02*
D03*
X275936D02*
D03*
X250536D02*
D03*
X225136D02*
D03*
X113376Y518348D02*
D03*
Y543748D02*
D03*
Y569148D02*
D03*
Y594548D02*
D03*
X37176Y518348D02*
D03*
Y543748D02*
D03*
Y569148D02*
D03*
X779906Y78338D02*
D03*
X813906D02*
D03*
D03*
X762906Y37338D02*
D03*
X796906D02*
D03*
X830906D02*
D03*
D03*
X834676Y16698D02*
D03*
X904586Y90298D02*
D03*
X885040Y579740D02*
D03*
Y509690D02*
D03*
Y534690D02*
D03*
Y554690D02*
D03*
X477866Y782233D02*
D03*
Y807633D02*
D03*
Y833033D02*
D03*
D03*
X748376Y563793D02*
D03*
Y589193D02*
D03*
Y614593D02*
D03*
D03*
X869026Y420558D02*
D03*
X894426D02*
D03*
X919826D02*
D03*
D03*
X611216Y391348D02*
D03*
X636616D02*
D03*
X662016D02*
D03*
D03*
X250536Y23048D02*
D03*
X478730Y21190D02*
D03*
X250476Y401508D02*
D03*
Y484058D02*
D03*
X504536Y449768D02*
D03*
Y475168D02*
D03*
X529936Y449768D02*
D03*
Y475168D02*
D03*
X555336Y449768D02*
D03*
Y475168D02*
D03*
X580736Y449768D02*
D03*
Y475168D02*
D03*
X606136Y449768D02*
D03*
Y475168D02*
D03*
X631536Y449768D02*
D03*
Y475168D02*
D03*
X656936Y449768D02*
D03*
Y475168D02*
D03*
X682336Y449768D02*
D03*
Y475168D02*
D03*
X707736Y449768D02*
D03*
Y475168D02*
D03*
X733136Y449768D02*
D03*
X138686Y391978D02*
D03*
Y411978D02*
D03*
Y436978D02*
D03*
Y366928D02*
D03*
D53*
X56226Y775883D02*
D03*
X132426D02*
D03*
X90516Y794933D02*
D03*
X14316D02*
D03*
X729326Y690793D02*
D03*
Y766993D02*
D03*
X804256Y532043D02*
D03*
Y455843D02*
D03*
X926176Y826683D02*
D03*
Y750483D02*
D03*
Y642533D02*
D03*
Y718733D02*
D03*
X862676Y816523D02*
D03*
X786476D02*
D03*
X921096Y111948D02*
D03*
X844896D02*
D03*
X761076Y77658D02*
D03*
X684876D02*
D03*
X752186Y246568D02*
D03*
X828386D02*
D03*
Y223708D02*
D03*
X752186D02*
D03*
X879186Y153858D02*
D03*
X955386D02*
D03*
X879186Y172908D02*
D03*
X955386D02*
D03*
X879186Y134808D02*
D03*
X955386D02*
D03*
X518506Y297368D02*
D03*
X594706D02*
D03*
X518506Y316418D02*
D03*
X594706D02*
D03*
X651856Y118298D02*
D03*
Y194498D02*
D03*
X616296Y268158D02*
D03*
Y191958D02*
D03*
X597246Y268158D02*
D03*
Y191958D02*
D03*
X623916Y137348D02*
D03*
X547716D02*
D03*
X476596Y724088D02*
D03*
X400396D02*
D03*
X813146Y96708D02*
D03*
X736946D02*
D03*
X277206Y12888D02*
D03*
Y89088D02*
D03*
X307686Y387538D02*
D03*
X383886D02*
D03*
Y407858D02*
D03*
X307686D02*
D03*
X383886Y204658D02*
D03*
X307686D02*
D03*
X383886Y224978D02*
D03*
X307686D02*
D03*
X383886Y245298D02*
D03*
X307686D02*
D03*
X383886Y265618D02*
D03*
X307686D02*
D03*
X383886Y285938D02*
D03*
X307686D02*
D03*
X383886Y306258D02*
D03*
X307686D02*
D03*
X383886Y326578D02*
D03*
X307686D02*
D03*
X383886Y346898D02*
D03*
X307686D02*
D03*
X383886Y367218D02*
D03*
X307686D02*
D03*
X268316Y245298D02*
D03*
Y321498D02*
D03*
X179416Y423098D02*
D03*
X255616D02*
D03*
X179416Y442148D02*
D03*
X255616D02*
D03*
X179416Y462468D02*
D03*
X255616D02*
D03*
X272126Y484058D02*
D03*
X348326D02*
D03*
X305146Y452308D02*
D03*
X381346D02*
D03*
X613756Y38288D02*
D03*
Y114488D02*
D03*
X593436Y38288D02*
D03*
Y114488D02*
D03*
X634076Y38288D02*
D03*
Y114488D02*
D03*
X595976Y768263D02*
D03*
X672176D02*
D03*
X319116Y692063D02*
D03*
Y768263D02*
D03*
D54*
X701386Y742863D02*
D03*
X627726Y297368D02*
D03*
X522316Y731433D02*
D03*
D55*
X701386Y730163D02*
D03*
Y717463D02*
D03*
X627726Y310068D02*
D03*
Y322768D02*
D03*
X522316Y718733D02*
D03*
Y706033D02*
D03*
D56*
X707736Y668208D02*
D03*
X904586Y19298D02*
D03*
X250536Y48448D02*
D03*
D57*
X37176Y594548D02*
D03*
X763676Y16698D02*
D03*
X407730Y21190D02*
D03*
X179476Y401508D02*
D03*
Y484058D02*
D03*
X733136Y475168D02*
D03*
D58*
X970626Y24148D02*
D03*
Y59148D02*
D03*
Y94148D02*
D03*
D59*
X829656Y125918D02*
D03*
D03*
Y151318D02*
D03*
Y176718D02*
D03*
Y202118D02*
D03*
X753456D02*
D03*
D03*
Y176718D02*
D03*
Y151318D02*
D03*
Y125918D02*
D03*
X501996Y269428D02*
D03*
D03*
Y244028D02*
D03*
Y218628D02*
D03*
Y193228D02*
D03*
X578196D02*
D03*
D03*
Y218628D02*
D03*
Y244028D02*
D03*
Y269428D02*
D03*
X842356Y320228D02*
D03*
D03*
Y345628D02*
D03*
Y371028D02*
D03*
Y396428D02*
D03*
X766156D02*
D03*
D03*
Y371028D02*
D03*
Y345628D02*
D03*
Y320228D02*
D03*
X496916Y38288D02*
D03*
D03*
X522316D02*
D03*
X547716D02*
D03*
X573116D02*
D03*
Y114488D02*
D03*
D03*
X547716D02*
D03*
X522316D02*
D03*
X496916D02*
D03*
D60*
X921986Y74798D02*
D03*
Y54798D02*
D03*
Y34798D02*
D03*
D03*
X172766Y819063D02*
D03*
Y839063D02*
D03*
Y859063D02*
D03*
Y879063D02*
D03*
X192766Y819063D02*
D03*
Y839063D02*
D03*
Y859063D02*
D03*
Y879063D02*
D03*
X212766Y819063D02*
D03*
Y839063D02*
D03*
Y859063D02*
D03*
Y879063D02*
D03*
X232766Y819063D02*
D03*
Y839063D02*
D03*
Y859063D02*
D03*
Y879063D02*
D03*
X252766Y819063D02*
D03*
Y839063D02*
D03*
Y859063D02*
D03*
Y879063D02*
D03*
X272766Y819063D02*
D03*
Y839063D02*
D03*
Y859063D02*
D03*
Y879063D02*
D03*
X168096Y167858D02*
D03*
X218896Y193258D02*
D03*
Y167858D02*
D03*
X193496Y193258D02*
D03*
Y167858D02*
D03*
X168096Y193258D02*
D03*
X142696D02*
D03*
Y167858D02*
D03*
Y104358D02*
D03*
Y129758D02*
D03*
X168096D02*
D03*
Y104358D02*
D03*
X193496D02*
D03*
Y129758D02*
D03*
X218896Y104358D02*
D03*
Y129758D02*
D03*
D61*
X711546Y49718D02*
D03*
X278476Y208468D02*
D03*
D62*
X724246Y49718D02*
D03*
X736946D02*
D03*
X253076Y208468D02*
D03*
X265776D02*
D03*
D63*
X824316Y788583D02*
D03*
X855316D02*
D03*
X400136Y694878D02*
D03*
X431136D02*
D03*
D64*
X381496Y177608D02*
D03*
X305496Y152208D02*
D03*
Y25208D02*
D03*
X381496D02*
D03*
D65*
X452466Y302448D02*
D03*
D66*
X375266Y823563D02*
D03*
X356466D02*
D03*
Y848963D02*
D03*
X375266D02*
D03*
Y874363D02*
D03*
X356466D02*
D03*
X70266Y823563D02*
D03*
X89066D02*
D03*
Y848963D02*
D03*
X70266D02*
D03*
X89066Y874363D02*
D03*
X70266D02*
D03*
X120266D02*
D03*
X139066D02*
D03*
X120266Y848963D02*
D03*
X139066D02*
D03*
Y823563D02*
D03*
X120266D02*
D03*
X306466Y874363D02*
D03*
X325266D02*
D03*
Y848963D02*
D03*
X306466D02*
D03*
Y823563D02*
D03*
X325266D02*
D03*
D67*
X402966Y848963D02*
D03*
X42566D02*
D03*
X168096Y258358D02*
D03*
Y39258D02*
D03*
D03*
D68*
X111586Y467778D02*
D03*
Y336178D02*
D03*
D69*
X641350Y134220D02*
D03*
X195926Y731433D02*
D03*
X791556Y319953D02*
D03*
X785206Y297093D02*
D03*
X654396Y341543D02*
D03*
X128616Y651423D02*
D03*
X768696Y693333D02*
D03*
X650586Y148503D02*
D03*
X562956Y551368D02*
D03*
X612486Y552638D02*
D03*
X877258Y211198D02*
D03*
X924906Y226248D02*
D03*
X844896D02*
D03*
X669636Y218628D02*
D03*
X278476Y354518D02*
D03*
X235296D02*
D03*
X183226Y367218D02*
D03*
X687416Y236408D02*
D03*
X668366Y252918D02*
D03*
X884266Y224978D02*
D03*
X720436Y325308D02*
D03*
X707736Y310068D02*
D03*
X339436Y456118D02*
D03*
X82896Y472628D02*
D03*
X157826Y651423D02*
D03*
X155286Y695873D02*
D03*
X449926Y650153D02*
D03*
X569306Y639993D02*
D03*
X316576Y655233D02*
D03*
X208626Y679363D02*
D03*
X601056Y728893D02*
D03*
X278476Y702223D02*
D03*
X273396Y761913D02*
D03*
D70*
X912140Y610490D02*
D03*
Y478890D02*
D03*
%TF.MD5,759CFAC8233DC5A367B39193EC879067*%
M02*
