M48
;Layer_Color=9474304
;FILE_FORMAT=4:4
METRIC,LZ
;TYPE=PLATED
T2F00S00C0.5100
T3F00S00C0.6000
T4F00S00C0.6410
T5F00S00C0.7000
T6F00S00C0.7112
T7F00S00C0.7620
T8F00S00C0.8500
T9F00S00C0.9000
T10F00S00C1.0000
T11F00S00C1.2000
T12F00S00C1.3000
T13F00S00C1.4100
T14F00S00C2.2500
T15F00S00C2.3000
%
T02
X00172766Y00819063
Y00839063
Y00859063
Y00879063
X00192766
X00212766
Y00859063
X00192766
Y00839063
X00212766
Y00819063
X00192766
X00232766
X00252766
Y00839063
X00232766
Y00859063
X00252766
Y00879063
X00232766
X00272766
Y00859063
Y00839063
Y00819063
T03
X00921986Y00034798
Y00054798
Y00074798
T04
X00142696Y00104358
Y00129758
X00168096
Y00104358
X00193496
Y00129758
X00218896
Y00104358
Y00167858
Y00193258
X00193496
Y00167858
X00168096
Y00193258
X00142696
Y00167858
T05
X00254346Y00119568
X00452466Y00124648
X00684876Y00103058
X00710276
X00660746Y00054798
Y00029398
X00870296
Y00080198
X00954116Y00280858
Y00331658
X00949036Y00378648
X00898236
X00865216Y00371028
Y00345628
X00903316Y00329118
Y00278318
X00866486Y00289748
Y00264348
X00829656Y00277048
X00778856
X00692496Y00280858
X00667096
X00674716Y00194498
X00700116
X00731866Y00185608
Y00211008
X00742026Y00345628
Y00371028
X00701386Y00353248
Y00404048
X00748376Y00507913
Y00533313
X00570576Y00377378
X00856326Y00166558
Y00141158
X00522316
X00496916
X00427066Y00213548
X00452466Y00302448
X00495646Y00298638
Y00324038
X00519776Y00377378
X0046101Y0048982
X0043561
X00281016Y00415478
Y00390078
X00234026Y00311338
X00244186Y00275778
Y00250378
X00254346Y00170368
X00183226Y00311338
X00113376Y00627293
X00104486Y00673013
Y00698413
Y00727623
Y00753023
X00019396Y00722543
Y00697143
Y00666663
Y00641263
X00138776Y00627293
X00376266Y00693608
X00400136Y00694878
X00431136
X00456276
X00481676
X00508346Y00779693
Y00805093
X00446116Y00808903
Y00834303
X00376266Y00719008
X00662016Y00801283
X00712816
X00824316Y00788583
X00855316
X00885536Y00784773
Y00810173
Y00754293
Y00728893
X00884266Y00674283
Y00648883
X00802986Y00628563
X00777586
Y00599353
X00802986
Y00558713
X00777586
T06
X0064135Y0013422
X00650586Y00148503
X00669636Y00218628
X00687416Y00236408
X00668366Y00252918
X00707736Y00310068
X00720436Y00325308
X00791556Y00319953
X00785206Y00297093
X00844896Y00226248
X00884266Y00224978
X00877258Y00211198
X00924906Y00226248
X00654396Y00341543
X00278476Y00354518
X00235296
X00183226Y00367218
X00339436Y00456118
X00082896Y00472628
X00128616Y00651423
X00157826
X00155286Y00695873
X00208626Y00679363
X00195926Y00731433
X00273396Y00761913
X00278476Y00702223
X00316576Y00655233
X00449926Y00650153
X00569306Y00639993
X00562956Y00551368
X00612486Y00552638
X00601056Y00728893
X00768696Y00693333
T07
X00496916Y00038288
X00522316
Y00114488
X00496916
X00547716
X00573116
Y00038288
X00547716
X00753456Y00125918
X00829656
Y00151318
Y00176718
Y00202118
X00753456
Y00176718
Y00151318
X00766156Y00320228
Y00345628
Y00371028
Y00396428
X00842356
Y00371028
Y00345628
Y00320228
X00578196Y00269428
Y00244028
Y00218628
Y00193228
X00501996
Y00218628
Y00244028
Y00269428
T08
X00277206Y00012888
Y00089088
X00547716Y00137348
X00593436Y00114488
X00613756
X00634076
X00651856Y00118298
X00623916Y00137348
X00613756Y00038288
X00593436
X00634076
X00684876Y00077658
X00736946Y00096708
X00761076Y00077658
X00813146Y00096708
X00844896Y00111948
X00879186Y00134808
X00921096Y00111948
X00955386Y00134808
Y00153858
Y00172908
X00879186
Y00153858
X00828386Y00223708
Y00246568
X00752186
Y00223708
X00651856Y00194498
X00616296Y00191958
X00597246
Y00268158
X00616296
X00594706Y00297368
Y00316418
X00804256Y00455843
Y00532043
X00518506Y00316418
Y00297368
X00383886Y00306258
Y00285938
Y00265618
Y00245298
Y00224978
Y00204658
X00307686
Y00224978
Y00245298
Y00265618
Y00285938
Y00306258
Y00326578
Y00346898
Y00367218
Y00387538
Y00407858
X00305146Y00452308
X00255616Y00442148
Y00423098
Y00462468
X00272126Y00484058
X00348326
X00381346Y00452308
X00383886Y00407858
Y00387538
Y00367218
Y00346898
Y00326578
X00268316Y00321498
Y00245298
X00179416Y00423098
Y00442148
Y00462468
X00132426Y00775883
X00090516Y00794933
X00056226Y00775883
X00014316Y00794933
X00319116Y00768263
Y00692063
X00400396Y00724088
X00476596
X00595976Y00768263
X00672176
X00729326Y00766993
Y00690793
X00786476Y00816523
X00862676
X00926176Y00826683
Y00750483
Y00718733
Y00642533
T09
X00250536Y00023048
Y00048448
X0040773Y0002119
X0047873
X00711546Y00049718
X00724246
X00736946
X00763676Y00016698
X00834676
X00904586Y00019298
Y00090298
X00627726Y00297368
Y00310068
Y00322768
X00631536Y00449768
X00606136
X00580736
X00555336
Y00475168
X00580736
X00606136
X00631536
X00656936
Y00449768
X00682336
Y00475168
X00707736
Y00449768
X00733136
Y00475168
X00707736Y00515808
X00682336
X00656936
X00631536
X00606136
X00580736
X00555336
X00529936
X00504536
X00479136
X00453736
X00428336
X00402936
X00377536
X00352136
X00326736
X00301336
X00275936
X00250536
X00225136
X00250476Y00484058
X00179476
Y00401508
X00250476
X00253076Y00208468
X00265776
X00278476
X00504536Y00449768
Y00475168
X00529936
Y00449768
X00113376Y00518348
X00037176
Y00543748
Y00569148
Y00594548
X00113376
Y00569148
Y00543748
X00225136Y00668208
X00250536
X00275936
X00301336
X00326736
X00352136
X00377536
X00402936
X00428336
X00453736
X00479136
X00504536
X00529936
X00522316Y00706033
Y00718733
Y00731433
X00555336Y00668208
X00580736
X00606136
X00631536
X00656936
X00682336
X00707736
X00701386Y00717463
Y00730163
Y00742863
T10
X00504536Y00013883
X00529936
X00555336
X00762906Y00037338
X00796906
X00830906
X00813906Y00078338
X00779906
X00780126Y00473623
Y00499023
Y00524423
X0088504Y0053469
Y0050969
X00894426Y00420558
X00869026
X00919826
X00662016Y00391348
X00636616
X00611216
X00138686Y00391978
Y00411978
Y00436978
Y00366928
X00477866Y00782233
Y00807633
Y00833033
X00748376Y00614593
Y00589193
Y00563793
X0088504Y0055469
Y0057974
T11
X00970626Y00024148
Y00059148
Y00094148
T12
X00305496Y00025208
X00381496
Y00177608
X00305496Y00152208
T13
X00042566Y00848963
X00402966
T14
X00168096Y00039258
Y00258358
T15
X0091214Y0047889
X00111586Y00467778
Y00336178
X0091214Y0061049
M30
