M48
;Layer_Color=9474304
;FILE_FORMAT=4:4
METRIC,LZ
;TYPE=PLATED
T1F00S00C0.4100
%
G90
G05
T01
G00X00070266Y00825513
M15
G01Y00821613
M16
G00X00089066Y00825513
M15
G01Y00821613
M16
G00X00089066Y00850913
M15
G01Y00847013
M16
G00X00070266Y00850913
M15
G01Y00847013
M16
G00X00070266Y00876313
M15
G01Y00872413
M16
G00X00089066Y00876313
M15
G01Y00872413
M16
G00X00120266Y00876313
M15
G01Y00872413
M16
G00X00120266Y00850913
M15
G01Y00847013
M16
G00X00120266Y00825513
M15
G01Y00821613
M16
G00X00139066Y00825513
M15
G01Y00821613
M16
G00X00139066Y00850913
M15
G01Y00847013
M16
G00X00139066Y00876313
M15
G01Y00872413
M16
G00X00306466Y00876313
M15
G01Y00872413
M16
G00X00325266Y00876313
M15
G01Y00872413
M16
G00X00325266Y00850913
M15
G01Y00847013
M16
G00X00306466Y00850913
M15
G01Y00847013
M16
G00X00306466Y00825513
M15
G01Y00821613
M16
G00X00325266Y00825513
M15
G01Y00821613
M16
G00X00356466Y00825513
M15
G01Y00821613
M16
G00X00375266Y00825513
M15
G01Y00821613
M16
G00X00375266Y00850913
M15
G01Y00847013
M16
G00X00356466Y00850913
M15
G01Y00847013
M16
G00X00356466Y00876313
M15
G01Y00872413
M16
G00X00375266Y00876313
M15
G01Y00872413
M16
M30
